<svg xmlns="http://www.w3.org/2000/svg" width="800" height="800" viewBox="0 0 800 800">
<g>
<path d="M 0.00 0.00 L 800.00 0.00 L 800.00 800.00 L 0.00 800.00 ZM 258.60 521.25 L 251.59 528.00 L 274.79 528.00 C288.31,528.00 298.00,527.61 298.00,527.08 C298.00,526.57 296.87,524.81 295.50,523.18 C291.74,518.71 289.05,512.03 289.02,507.11 C289.00,502.97 300.74,430.95 301.57,430.11 C302.39,429.27 311.34,433.38 317.20,437.29 C333.62,448.26 346.08,466.71 353.67,491.32 C357.93,505.11 357.01,513.94 350.46,522.18 C348.57,524.55 347.02,526.84 347.01,527.25 C347.00,527.66 360.73,528.00 377.50,528.00 C394.36,528.00 408.00,527.61 408.00,527.12 C408.00,526.64 405.61,524.20 402.68,521.70 C393.92,514.21 391.73,508.87 387.61,484.99 C385.66,473.72 378.90,434.58 372.59,398.00 C366.27,361.42 359.50,322.05 357.54,310.50 C352.76,282.44 349.67,270.31 344.52,259.35 C337.35,244.08 329.16,237.18 315.68,235.03 C306.69,233.59 300.00,235.11 294.88,239.72 C292.75,241.65 291.00,243.62 291.00,244.10 C291.00,244.58 292.49,245.60 294.31,246.36 C298.86,248.26 304.49,255.13 306.13,260.79 C306.99,263.74 307.46,269.98 307.39,277.50 C307.27,290.45 306.34,296.37 294.21,361.50 L 287.50 397.50 L 279.87 398.19 C265.73,399.47 253.20,406.45 246.19,416.96 C240.71,425.16 238.65,433.45 239.16,445.21 C239.66,456.59 242.29,462.01 249.65,466.89 C256.83,471.64 257.37,471.33 258.69,461.75 C260.88,445.78 266.13,436.80 276.39,431.42 C279.41,429.84 282.12,428.79 282.41,429.08 C283.55,430.22 270.02,504.99 267.81,509.76 C266.53,512.54 262.71,517.29 258.60,521.25 ZM 410.00 527.35 C410.00,527.71 424.02,528.00 441.15,528.00 L 472.31 528.00 L 470.40 525.75 C469.36,524.52 467.26,522.18 465.74,520.56 C464.23,518.94 461.98,515.56 460.74,513.05 C458.53,508.57 458.50,507.81 458.19,463.50 C457.88,418.64 458.32,409.86 461.48,397.74 C463.69,389.25 467.15,380.74 468.02,381.66 C468.46,382.12 477.72,409.50 488.61,442.50 C511.32,511.34 511.46,511.98 506.05,521.57 C504.30,524.67 503.05,527.39 503.28,527.62 C503.51,527.84 517.83,527.91 535.10,527.76 L 566.50 527.50 L 559.41 521.84 C546.13,511.23 550.10,521.24 504.54,383.23 L 488.94 335.97 L 502.08 307.73 C509.31,292.21 516.86,276.15 518.86,272.06 C523.13,263.33 530.52,254.96 539.83,248.28 L 546.50 243.50 L 523.10 243.23 C510.23,243.08 499.47,243.20 499.17,243.49 C498.88,243.79 499.41,245.64 500.35,247.62 C502.78,252.70 503.40,258.79 502.03,264.01 C501.02,267.85 482.87,307.12 463.67,347.00 L 458.13 358.50 L 458.32 310.50 C458.33,308.32 458.33,306.23 458.34,304.22 C458.47,268.46 458.49,260.40 462.16,254.67 C463.43,252.69 465.14,250.98 467.44,248.50 L 472.08 243.50 L 456.54 243.22 C447.99,243.07 434.01,243.07 425.46,243.22 L 409.92 243.50 L 414.94 249.43 C416.48,251.25 417.74,252.46 418.78,253.83 C423.55,260.16 423.54,270.09 423.51,359.54 C423.50,367.82 423.50,376.79 423.50,386.50 L 423.50 507.50 L 421.32 512.22 C420.12,514.81 417.08,519.13 414.57,521.82 C412.06,524.51 410.00,527.00 410.00,527.35 ZM 344.52 432.75 C345.40,436.57 343.74,435.28 337.08,426.96 C329.45,417.44 323.09,411.85 313.25,406.00 C309.26,403.63 306.00,401.38 306.00,401.01 C306.00,400.63 307.10,394.29 308.44,386.91 C309.79,379.54 313.17,360.23 315.95,344.00 C318.74,327.77 321.40,313.15 321.86,311.50 L 322.71 308.50 L 323.34 311.00 C323.69,312.38 328.48,339.83 333.99,372.00 C339.49,404.17 344.23,431.51 344.52,432.75 Z" fill="rgb(0,0,0)"/>
<path d="M 258.60 521.25 C262.71,517.29 266.53,512.54 267.81,509.76 C270.02,504.99 283.55,430.22 282.41,429.08 C282.12,428.79 279.41,429.84 276.39,431.42 C266.13,436.80 260.88,445.78 258.69,461.75 C257.37,471.33 256.83,471.64 249.65,466.89 C242.29,462.01 239.66,456.59 239.16,445.21 C238.65,433.45 240.71,425.16 246.19,416.96 C253.20,406.45 265.73,399.47 279.87,398.19 L 287.50 397.50 L 294.21 361.50 C306.34,296.37 307.27,290.45 307.39,277.50 C307.46,269.98 306.99,263.74 306.13,260.79 C304.49,255.13 298.86,248.26 294.31,246.36 C292.49,245.60 291.00,244.58 291.00,244.10 C291.00,243.62 292.75,241.65 294.88,239.72 C300.00,235.11 306.69,233.59 315.68,235.03 C329.16,237.18 337.35,244.08 344.52,259.35 C349.67,270.31 352.76,282.44 357.54,310.50 C359.50,322.05 366.27,361.42 372.59,398.00 C378.90,434.58 385.66,473.72 387.61,484.99 C391.73,508.87 393.92,514.21 402.68,521.70 C405.61,524.20 408.00,526.64 408.00,527.12 C408.00,527.61 394.36,528.00 377.50,528.00 C360.73,528.00 347.00,527.66 347.01,527.25 C347.02,526.84 348.57,524.55 350.46,522.18 C357.01,513.94 357.93,505.11 353.67,491.32 C346.08,466.71 333.62,448.26 317.20,437.29 C311.34,433.38 302.39,429.27 301.57,430.11 C300.74,430.95 289.00,502.97 289.02,507.11 C289.05,512.03 291.74,518.71 295.50,523.18 C296.87,524.81 298.00,526.57 298.00,527.08 C298.00,527.61 288.31,528.00 274.79,528.00 L 251.59 528.00 L 258.60 521.25 ZM 344.52 432.75 C344.23,431.51 339.49,404.17 333.99,372.00 C328.48,339.83 323.69,312.38 323.34,311.00 L 322.71 308.50 L 321.86 311.50 C321.40,313.15 318.74,327.77 315.95,344.00 C313.17,360.23 309.79,379.54 308.44,386.91 C307.10,394.29 306.00,400.63 306.00,401.01 C306.00,401.38 309.26,403.63 313.25,406.00 C323.09,411.85 329.45,417.44 337.08,426.96 C343.74,435.28 345.40,436.57 344.52,432.75 ZM 410.00 527.35 C410.00,527.00 412.06,524.51 414.57,521.82 C417.08,519.13 420.12,514.81 421.32,512.22 L 423.50 507.50 L 423.50 386.50 C423.50,249.16 424.20,260.38 414.94,249.43 L 409.92 243.50 L 425.46 243.22 C434.01,243.07 447.99,243.07 456.54,243.22 L 472.08 243.50 L 467.44 248.50 C458.13,258.55 458.53,255.86 458.32,310.50 L 458.13 358.50 L 463.67 347.00 C482.87,307.12 501.02,267.85 502.03,264.01 C503.40,258.79 502.78,252.70 500.35,247.62 C499.41,245.64 498.88,243.79 499.17,243.49 C499.47,243.20 510.23,243.08 523.10,243.23 L 546.50 243.50 L 539.83 248.28 C530.52,254.96 523.13,263.33 518.86,272.06 C516.86,276.15 509.31,292.21 502.08,307.73 L 488.94 335.97 L 504.54 383.23 C550.10,521.24 546.13,511.23 559.41,521.84 L 566.50 527.50 L 535.10 527.76 C517.83,527.91 503.51,527.84 503.28,527.62 C503.05,527.39 504.30,524.67 506.05,521.57 C511.46,511.98 511.32,511.34 488.61,442.50 C477.72,409.50 468.46,382.12 468.02,381.66 C467.15,380.74 463.69,389.25 461.48,397.74 C458.32,409.86 457.88,418.64 458.19,463.50 C458.50,507.81 458.53,508.57 460.74,513.05 C461.98,515.56 464.23,518.94 465.74,520.56 C467.26,522.18 469.36,524.52 470.40,525.75 L 472.31 528.00 L 441.15 528.00 C424.02,528.00 410.00,527.71 410.00,527.35 Z" fill="rgb(254,254,254)"/>
</g>
</svg>