<svg xmlns="http://www.w3.org/2000/svg" width="1025" height="1023" viewBox="0 0 1025 1023">
<g>
<path d="M 1025.00 1023.00 L 0.00 1023.00 L 254.75 1022.84 C389.32,1022.75 493.54,1022.38 493.54,1022.00 C493.54,1021.98 493.36,1021.96 493.00,1021.95 C438.19,1019.54 389.66,1009.96 338.23,991.41 C259.12,962.88 189.20,915.25 131.40,850.50 C111.77,828.52 87.74,796.16 76.43,776.50 C75.79,775.40 72.71,770.22 69.57,765.00 C63.07,754.18 48.03,723.91 42.49,710.50 C36.48,695.96 26.22,667.09 24.00,658.50 C23.58,656.85 22.02,651.00 20.54,645.50 C15.38,626.35 14.15,621.46 12.99,615.50 C8.38,591.74 8.19,590.50 5.06,563.00 C2.50,540.64 2.20,489.38 4.48,467.00 C9.79,414.99 19.16,374.48 36.16,330.00 C63.54,258.34 107.44,193.12 163.13,141.35 C187.69,118.52 206.19,103.85 230.77,87.69 C266.71,64.06 290.02,51.72 324.52,38.03 C347.97,28.73 363.27,23.81 391.50,16.48 C434.39,5.36 499.90,-0.41 544.00,3.06 C559.51,4.28 588.15,7.58 595.50,8.99 L 611.50 12.07 C617.55,13.23 627.90,15.52 634.50,17.17 C641.10,18.81 648.97,20.77 652.00,21.52 C665.14,24.80 700.04,37.53 718.50,45.79 C729.30,50.62 751.71,61.80 760.19,66.58 C778.64,76.98 807.74,96.31 821.64,107.40 C824.46,109.66 831.65,115.32 837.60,120.00 C848.59,128.64 884.71,163.73 895.76,176.52 C912.98,196.45 934.26,224.99 945.72,243.53 C947.73,246.80 956.91,262.58 960.08,268.22 C965.91,278.61 979.73,307.70 983.97,318.50 C986.34,324.55 988.67,330.40 989.15,331.50 C990.30,334.18 996.68,352.13 998.92,359.00 C1001.66,367.42 1004.68,378.26 1007.54,390.00 C1008.41,393.58 1009.58,398.25 1010.14,400.39 C1011.19,404.37 1011.82,407.67 1014.56,423.50 C1016.55,434.97 1017.54,442.03 1018.91,454.50 C1019.51,460.00 1020.45,468.12 1021.00,472.55 C1022.32,483.18 1022.28,538.43 1020.95,552.45 C1018.92,573.81 1016.65,591.78 1014.61,602.50 C1011.26,620.20 1006.25,641.82 1004.94,644.24 C1004.42,645.19 1004.00,646.87 1004.00,647.97 C1004.00,649.06 1003.37,651.66 1002.60,653.73 C1001.83,655.80 999.74,662.22 997.95,668.00 C996.16,673.78 994.31,678.93 993.85,679.45 C993.38,679.97 993.00,681.19 993.00,682.17 C993.00,683.14 992.36,685.41 991.58,687.22 C990.80,689.02 989.15,693.20 987.93,696.50 C986.70,699.80 984.86,704.39 983.85,706.70 C982.83,709.00 982.00,711.13 982.00,711.42 C982.00,712.52 965.33,746.71 961.00,754.50 C960.08,756.15 957.85,760.20 956.03,763.50 C954.22,766.80 951.00,772.14 948.87,775.36 C946.74,778.59 945.00,781.43 945.00,781.67 C945.00,781.91 942.41,785.93 939.25,790.62 C936.09,795.30 933.05,799.87 932.50,800.77 C929.13,806.29 914.32,826.02 907.17,834.50 C855.83,895.39 803.14,937.20 736.50,969.95 C698.41,988.67 676.85,996.44 628.50,1008.85 C604.32,1015.06 568.67,1020.31 539.50,1021.95 C539.27,1021.97 539.16,1021.98 539.16,1021.99 C539.16,1022.38 643.03,1022.76 775.75,1022.84 L 1025.00 1023.00 ZM 481.50 990.91 C506.40,992.58 543.09,991.72 565.00,988.96 C600.10,984.53 616.73,981.14 646.15,972.43 C709.16,953.75 767.72,922.45 817.97,880.56 C848.95,854.74 878.55,822.84 901.92,790.10 C923.73,759.54 945.03,721.56 954.41,696.54 C956.42,691.16 958.67,685.58 959.40,684.13 C960.93,681.09 970.85,651.85 973.85,641.50 C980.09,620.04 980.60,617.93 983.42,602.00 C985.56,589.86 988.78,567.27 989.90,556.50 C992.72,529.31 992.07,482.79 988.48,455.50 C987.61,448.90 986.50,440.23 986.00,436.23 C985.50,432.23 984.85,428.57 984.56,428.09 C984.26,427.62 983.57,424.37 983.01,420.87 C981.19,409.37 978.54,398.26 973.88,382.50 C970.92,372.50 961.09,343.16 960.03,341.17 C959.54,340.25 956.79,333.65 953.92,326.50 C949.18,314.71 940.35,295.98 935.30,287.00 C934.21,285.08 931.83,280.80 930.00,277.50 C916.68,253.50 895.26,222.93 876.06,200.50 C848.03,167.76 810.81,135.08 774.09,110.98 C726.62,79.82 674.80,57.33 623.50,45.62 C582.78,36.33 551.72,32.76 511.50,32.77 C481.00,32.78 469.64,33.76 427.50,40.02 C401.95,43.81 361.37,55.41 335.00,66.46 C300.86,80.77 277.29,93.22 250.00,111.38 C200.92,144.03 159.30,183.88 125.50,230.56 C111.74,249.56 104.67,259.89 102.76,263.78 C101.80,265.73 100.34,268.08 99.51,268.99 C98.68,269.91 98.00,270.90 98.00,271.21 C98.00,271.51 95.91,275.52 93.36,280.13 C84.76,295.63 77.13,311.16 71.62,324.37 C63.45,343.96 58.00,358.04 58.00,359.57 C58.00,360.32 57.37,362.41 56.60,364.22 C55.82,366.02 54.64,369.52 53.97,372.00 C52.59,377.12 51.20,382.06 47.95,393.50 C45.57,401.88 43.47,411.07 42.02,419.50 C41.55,422.25 40.43,428.77 39.53,434.00 C30.47,486.97 31.44,554.82 41.98,606.00 C44.79,619.64 47.00,628.23 52.52,647.00 C53.41,650.03 54.53,653.85 55.01,655.50 C56.65,661.11 61.69,675.48 63.97,681.00 C65.22,684.03 66.88,688.08 67.67,690.00 C68.45,691.92 69.53,694.28 70.05,695.24 C70.57,696.19 71.00,697.41 71.00,697.95 C71.00,698.93 78.75,715.39 86.33,730.50 C89.75,737.31 95.49,747.49 99.02,753.00 C99.55,753.83 100.95,756.30 102.13,758.50 C104.70,763.29 118.24,783.72 125.34,793.50 C145.08,820.73 176.23,854.57 200.50,875.15 C256.02,922.22 317.77,955.33 386.00,974.61 C412.88,982.21 452.43,988.96 481.50,990.91 ZM 253.71 713.75 C252.52,715.30 160.00,715.60 160.00,714.05 C160.00,713.53 163.60,705.61 168.00,696.44 C172.40,687.27 176.00,679.64 176.00,679.47 C176.00,679.31 179.76,671.37 184.36,661.84 C188.96,652.30 195.43,638.88 198.73,632.00 C202.03,625.12 208.40,611.90 212.87,602.61 C217.34,593.32 221.00,585.54 221.00,585.33 C221.00,585.12 223.76,579.23 227.14,572.23 C241.81,541.79 248.00,528.83 248.00,528.52 C248.00,528.33 252.32,519.25 257.61,508.34 C262.89,497.43 268.47,485.80 269.99,482.50 C271.52,479.20 275.34,471.10 278.50,464.50 C281.65,457.90 285.48,449.80 287.01,446.50 C288.55,443.20 293.89,432.02 298.90,421.65 C303.90,411.29 308.00,402.69 308.00,402.54 C308.00,402.28 319.45,378.31 329.99,356.50 C332.64,351.00 338.89,338.06 343.86,327.75 L 352.90 309.00 L 398.20 309.02 C423.11,309.02 444.01,309.36 444.63,309.77 C445.26,310.17 448.33,315.90 451.47,322.50 C454.61,329.10 459.57,339.45 462.49,345.50 C468.20,357.31 475.63,372.92 481.30,385.00 C483.24,389.12 487.62,398.35 491.04,405.50 C494.46,412.65 499.17,422.55 501.49,427.50 C503.81,432.45 508.43,442.12 511.75,449.00 C515.06,455.88 520.58,467.35 524.00,474.50 C527.42,481.65 532.82,492.90 536.00,499.50 C539.19,506.10 543.59,515.33 545.79,520.00 C547.99,524.67 553.14,535.47 557.23,544.00 C561.33,552.53 566.28,562.88 568.24,567.00 C576.91,585.25 583.52,598.97 593.40,619.24 C599.23,631.20 604.00,641.21 604.00,641.47 C604.00,641.94 608.71,651.85 623.96,683.50 C637.00,710.58 638.00,712.73 638.00,713.88 C638.00,714.72 625.68,714.95 591.32,714.76 L 544.65 714.50 L 541.34 708.00 C537.68,700.78 522.50,667.86 513.22,647.00 C509.92,639.58 505.09,629.00 502.50,623.50 C499.90,618.00 494.74,606.75 491.01,598.50 C484.73,584.58 472.71,558.56 466.05,544.50 C463.30,538.68 454.08,518.74 448.47,506.50 C444.19,497.14 439.62,487.29 435.08,477.63 C432.79,472.76 428.40,463.08 425.32,456.13 C422.25,449.19 418.17,440.12 416.26,436.00 C414.35,431.88 411.15,424.92 409.15,420.55 C399.92,400.45 397.90,397.51 396.47,402.19 C395.68,404.77 392.67,411.49 386.88,423.61 C384.74,428.08 383.00,432.09 383.00,432.53 C383.00,432.98 382.42,434.05 381.71,434.92 C381.00,435.79 379.81,438.30 379.06,440.50 C378.32,442.70 375.72,448.77 373.28,454.00 C370.84,459.23 368.47,464.40 368.02,465.50 C366.17,470.02 363.42,476.08 358.50,486.50 C355.64,492.55 350.91,502.67 347.99,509.00 C345.07,515.33 341.41,523.24 339.84,526.58 C338.28,529.92 337.00,532.97 337.00,533.36 C337.00,533.75 335.02,538.05 332.59,542.92 C329.36,549.41 328.48,552.08 329.29,552.89 C330.08,553.68 347.09,554.00 387.71,554.00 L 445.03 554.00 L 447.61 559.75 C449.03,562.91 451.67,568.65 453.46,572.50 C455.26,576.35 458.59,583.48 460.87,588.35 C463.14,593.21 465.00,597.44 465.00,597.74 C465.00,598.24 467.19,602.92 475.12,619.38 C476.68,622.62 477.71,625.65 477.42,626.13 C477.12,626.61 435.87,627.00 384.92,627.00 L 292.95 627.00 L 291.98 629.55 C291.45,630.95 289.92,634.44 288.58,637.30 C287.25,640.16 284.05,647.22 281.48,653.00 C278.91,658.78 275.78,665.75 274.54,668.50 C273.29,671.25 271.26,675.75 270.02,678.50 C268.79,681.25 265.43,688.45 262.55,694.50 C259.68,700.55 256.73,707.08 256.00,709.00 C255.27,710.92 254.24,713.06 253.71,713.75 ZM 863.45 714.08 C863.12,714.62 842.88,715.00 814.60,715.00 C769.86,715.00 766.20,714.87 764.77,713.25 C763.92,712.29 758.83,704.75 753.46,696.50 C748.09,688.25 741.35,677.90 738.49,673.50 C735.62,669.10 726.31,654.92 717.79,642.00 C696.86,610.25 676.56,579.33 665.91,563.00 C654.41,545.36 654.14,545.00 652.52,545.00 C651.76,545.00 649.42,547.14 647.33,549.75 C645.23,552.36 639.92,558.58 635.51,563.58 C631.10,568.57 623.04,577.71 617.59,583.90 L 607.67 595.14 L 604.47 588.32 C602.71,584.57 597.33,573.40 592.52,563.50 C584.25,546.48 581.65,541.02 573.63,523.75 C571.78,519.76 565.98,507.73 560.74,497.00 C555.50,486.27 549.42,473.67 547.22,469.00 C538.95,451.44 528.78,430.30 525.94,424.79 L 523.00 419.08 L 523.00 308.98 L 565.02 309.24 L 607.05 309.50 L 607.31 393.70 C607.46,440.02 607.85,478.18 608.18,478.52 C608.52,478.85 614.35,472.71 621.14,464.88 C627.94,457.04 636.88,446.74 641.00,441.98 C645.12,437.23 653.90,427.11 660.50,419.50 C667.10,411.90 674.75,403.08 677.50,399.90 C680.25,396.73 689.70,385.67 698.49,375.32 C707.28,364.97 723.84,345.81 735.28,332.75 L 756.08 309.00 L 807.04 309.00 C835.07,309.00 858.00,309.35 858.00,309.78 C858.00,310.21 854.74,314.16 850.75,318.58 C846.76,322.99 838.69,332.20 832.81,339.05 C819.62,354.40 812.70,362.31 803.95,372.00 C800.23,376.12 795.45,381.58 793.34,384.12 C788.65,389.76 770.32,410.66 760.68,421.37 C756.79,425.69 752.68,430.42 751.55,431.87 C749.62,434.35 741.95,443.32 721.74,466.74 C716.92,472.33 712.54,477.17 711.99,477.51 C709.96,478.76 711.14,482.15 716.08,489.22 C718.88,493.22 731.40,512.03 743.92,531.00 C756.44,549.97 777.71,582.15 791.18,602.50 C804.66,622.85 816.28,640.62 817.01,641.99 C817.73,643.36 820.50,647.47 823.16,651.13 C825.82,654.79 828.00,658.00 828.00,658.28 C828.00,658.55 832.72,665.84 838.50,674.48 C844.28,683.11 849.00,690.31 849.00,690.46 C849.00,690.61 852.38,695.78 856.51,701.95 C860.64,708.12 863.76,713.58 863.45,714.08 Z" fill="rgb(38,47,53)"/>
<path d="M 0.00 511.50 L 0.00 0.00 L 512.50 0.00 L 1025.00 0.00 L 1025.00 511.50 L 1025.00 1023.00 L 775.75 1022.84 C638.66,1022.76 532.35,1022.36 539.50,1021.95 C568.67,1020.31 604.32,1015.06 628.50,1008.85 C676.85,996.44 698.41,988.67 736.50,969.95 C803.14,937.20 855.83,895.39 907.17,834.50 C914.32,826.02 929.13,806.29 932.50,800.77 C933.05,799.87 936.09,795.30 939.25,790.62 C942.41,785.93 945.00,781.91 945.00,781.67 C945.00,781.43 946.74,778.59 948.87,775.36 C951.00,772.14 954.22,766.80 956.03,763.50 C957.85,760.20 960.08,756.15 961.00,754.50 C965.33,746.71 982.00,712.52 982.00,711.42 C982.00,711.13 982.83,709.00 983.85,706.70 C984.86,704.39 986.70,699.80 987.93,696.50 C989.15,693.20 990.80,689.02 991.58,687.22 C992.36,685.41 993.00,683.14 993.00,682.17 C993.00,681.19 993.38,679.97 993.85,679.45 C994.31,678.93 996.16,673.78 997.95,668.00 C999.74,662.22 1001.83,655.80 1002.60,653.73 C1003.37,651.66 1004.00,649.06 1004.00,647.97 C1004.00,646.87 1004.42,645.19 1004.94,644.24 C1006.25,641.82 1011.26,620.20 1014.61,602.50 C1016.65,591.78 1018.92,573.81 1020.95,552.45 C1022.28,538.43 1022.32,483.18 1021.00,472.55 C1020.45,468.12 1019.51,460.00 1018.91,454.50 C1017.54,442.03 1016.55,434.97 1014.56,423.50 C1011.82,407.67 1011.19,404.37 1010.14,400.39 C1009.58,398.25 1008.41,393.58 1007.54,390.00 C1004.68,378.26 1001.66,367.42 998.92,359.00 C996.68,352.13 990.30,334.18 989.15,331.50 C988.67,330.40 986.34,324.55 983.97,318.50 C979.73,307.70 965.91,278.61 960.08,268.22 C956.91,262.58 947.73,246.80 945.72,243.53 C934.26,224.99 912.98,196.45 895.76,176.52 C884.71,163.73 848.59,128.64 837.60,120.00 C831.65,115.32 824.46,109.66 821.64,107.40 C807.74,96.31 778.64,76.98 760.19,66.58 C751.71,61.80 729.30,50.62 718.50,45.79 C700.04,37.53 665.14,24.80 652.00,21.52 C648.97,20.77 641.10,18.81 634.50,17.17 C627.90,15.52 617.55,13.23 611.50,12.07 C605.45,10.90 598.25,9.52 595.50,8.99 C588.15,7.58 559.51,4.28 544.00,3.06 C499.90,-0.41 434.39,5.36 391.50,16.48 C363.27,23.81 347.97,28.73 324.52,38.03 C290.02,51.72 266.71,64.06 230.77,87.69 C206.19,103.85 187.69,118.52 163.13,141.35 C107.44,193.12 63.54,258.34 36.16,330.00 C19.16,374.48 9.79,414.99 4.48,467.00 C2.20,489.38 2.50,540.64 5.06,563.00 C8.19,590.50 8.38,591.74 12.99,615.50 C14.15,621.46 15.38,626.35 20.54,645.50 C22.02,651.00 23.58,656.85 24.00,658.50 C26.22,667.09 36.48,695.96 42.49,710.50 C48.03,723.91 63.07,754.18 69.57,765.00 C72.71,770.22 75.79,775.40 76.43,776.50 C87.74,796.16 111.77,828.52 131.40,850.50 C189.20,915.25 259.12,962.88 338.23,991.41 C389.66,1009.96 438.19,1019.54 493.00,1021.95 C502.08,1022.35 394.86,1022.75 254.75,1022.84 L 0.00 1023.00 L 0.00 511.50 ZM 481.50 990.91 C452.43,988.96 412.88,982.21 386.00,974.61 C317.77,955.33 256.02,922.22 200.50,875.15 C176.23,854.57 145.08,820.73 125.34,793.50 C118.24,783.72 104.70,763.29 102.13,758.50 C100.95,756.30 99.55,753.83 99.02,753.00 C95.49,747.49 89.75,737.31 86.33,730.50 C78.75,715.39 71.00,698.93 71.00,697.95 C71.00,697.41 70.57,696.19 70.05,695.24 C69.53,694.28 68.45,691.92 67.67,690.00 C66.88,688.08 65.22,684.03 63.97,681.00 C61.69,675.48 56.65,661.11 55.01,655.50 C54.53,653.85 53.41,650.03 52.52,647.00 C47.00,628.23 44.79,619.64 41.98,606.00 C31.44,554.82 30.47,486.97 39.53,434.00 C40.43,428.77 41.55,422.25 42.02,419.50 C43.47,411.07 45.57,401.88 47.95,393.50 C51.20,382.06 52.59,377.12 53.97,372.00 C54.64,369.52 55.82,366.02 56.60,364.22 C57.37,362.41 58.00,360.32 58.00,359.57 C58.00,358.04 63.45,343.96 71.62,324.37 C77.13,311.16 84.76,295.63 93.36,280.13 C95.91,275.52 98.00,271.51 98.00,271.21 C98.00,270.90 98.68,269.91 99.51,268.99 C100.34,268.08 101.80,265.73 102.76,263.78 C104.67,259.89 111.74,249.56 125.50,230.56 C159.30,183.88 200.92,144.03 250.00,111.38 C277.29,93.22 300.86,80.77 335.00,66.46 C361.37,55.41 401.95,43.81 427.50,40.02 C469.64,33.76 481.00,32.78 511.50,32.77 C551.72,32.76 582.78,36.33 623.50,45.62 C674.80,57.33 726.62,79.82 774.09,110.98 C810.81,135.08 848.03,167.76 876.06,200.50 C895.26,222.93 916.68,253.50 930.00,277.50 C931.83,280.80 934.21,285.08 935.30,287.00 C940.35,295.98 949.18,314.71 953.92,326.50 C956.79,333.65 959.54,340.25 960.03,341.17 C961.09,343.16 970.92,372.50 973.88,382.50 C978.54,398.26 981.19,409.37 983.01,420.87 C983.57,424.37 984.26,427.62 984.56,428.09 C984.85,428.57 985.50,432.23 986.00,436.23 C986.50,440.23 987.61,448.90 988.48,455.50 C992.07,482.79 992.72,529.31 989.90,556.50 C988.78,567.27 985.56,589.86 983.42,602.00 C980.60,617.93 980.09,620.04 973.85,641.50 C970.85,651.85 960.93,681.09 959.40,684.13 C958.67,685.58 956.42,691.16 954.41,696.54 C945.03,721.56 923.73,759.54 901.92,790.10 C878.55,822.84 848.95,854.74 817.97,880.56 C767.72,922.45 709.16,953.75 646.15,972.43 C616.73,981.14 600.10,984.53 565.00,988.96 C543.09,991.72 506.40,992.58 481.50,990.91 ZM 253.71 713.75 C254.24,713.06 255.27,710.92 256.00,709.00 C256.73,707.08 259.68,700.55 262.55,694.50 C265.43,688.45 268.79,681.25 270.02,678.50 C271.26,675.75 273.29,671.25 274.54,668.50 C275.78,665.75 278.91,658.78 281.48,653.00 C284.05,647.22 287.25,640.16 288.58,637.30 C289.92,634.44 291.45,630.95 291.98,629.55 L 292.95 627.00 L 384.92 627.00 C435.87,627.00 477.12,626.61 477.42,626.13 C477.71,625.65 476.68,622.62 475.12,619.38 C467.19,602.92 465.00,598.24 465.00,597.74 C465.00,597.44 463.14,593.21 460.87,588.35 C458.59,583.48 455.26,576.35 453.46,572.50 C451.67,568.65 449.03,562.91 447.61,559.75 L 445.03 554.00 L 387.71 554.00 C347.09,554.00 330.08,553.68 329.29,552.89 C328.48,552.08 329.36,549.41 332.59,542.92 C335.02,538.05 337.00,533.75 337.00,533.36 C337.00,532.97 338.28,529.92 339.84,526.58 C341.41,523.24 345.07,515.33 347.99,509.00 C350.91,502.67 355.64,492.55 358.50,486.50 C363.42,476.08 366.17,470.02 368.02,465.50 C368.47,464.40 370.84,459.23 373.28,454.00 C375.72,448.77 378.32,442.70 379.06,440.50 C379.81,438.30 381.00,435.79 381.71,434.92 C382.42,434.05 383.00,432.98 383.00,432.53 C383.00,432.09 384.74,428.08 386.88,423.61 C392.67,411.49 395.68,404.77 396.47,402.19 C397.90,397.51 399.92,400.45 409.15,420.55 C411.15,424.92 414.35,431.88 416.26,436.00 C418.17,440.12 422.25,449.19 425.32,456.13 C428.40,463.08 432.79,472.76 435.08,477.63 C439.62,487.29 444.19,497.14 448.47,506.50 C454.08,518.74 463.30,538.68 466.05,544.50 C472.71,558.56 484.73,584.58 491.01,598.50 C494.74,606.75 499.90,618.00 502.50,623.50 C505.09,629.00 509.92,639.58 513.22,647.00 C522.50,667.86 537.68,700.78 541.34,708.00 L 544.65 714.50 L 591.32 714.76 C625.68,714.95 638.00,714.72 638.00,713.88 C638.00,712.73 637.00,710.58 623.96,683.50 C608.71,651.85 604.00,641.94 604.00,641.47 C604.00,641.21 599.23,631.20 593.40,619.24 C583.52,598.97 576.91,585.25 568.24,567.00 C566.28,562.88 561.33,552.53 557.23,544.00 C553.14,535.47 547.99,524.67 545.79,520.00 C543.59,515.33 539.19,506.10 536.00,499.50 C532.82,492.90 527.42,481.65 524.00,474.50 C520.58,467.35 515.06,455.88 511.75,449.00 C508.43,442.12 503.81,432.45 501.49,427.50 C499.17,422.55 494.46,412.65 491.04,405.50 C487.62,398.35 483.24,389.12 481.30,385.00 C475.63,372.92 468.20,357.31 462.49,345.50 C459.57,339.45 454.61,329.10 451.47,322.50 C448.33,315.90 445.26,310.17 444.63,309.77 C444.01,309.36 423.11,309.02 398.20,309.02 L 352.90 309.00 L 343.86 327.75 C338.89,338.06 332.64,351.00 329.99,356.50 C319.45,378.31 308.00,402.28 308.00,402.54 C308.00,402.69 303.90,411.29 298.90,421.65 C293.89,432.02 288.55,443.20 287.01,446.50 C285.48,449.80 281.65,457.90 278.50,464.50 C275.34,471.10 271.52,479.20 269.99,482.50 C268.47,485.80 262.89,497.43 257.61,508.34 C252.32,519.25 248.00,528.33 248.00,528.52 C248.00,528.83 241.81,541.79 227.14,572.23 C223.76,579.23 221.00,585.12 221.00,585.33 C221.00,585.54 217.34,593.32 212.87,602.61 C208.40,611.90 202.03,625.12 198.73,632.00 C195.43,638.88 188.96,652.30 184.36,661.84 C179.76,671.37 176.00,679.31 176.00,679.47 C176.00,679.64 172.40,687.27 168.00,696.44 C163.60,705.61 160.00,713.53 160.00,714.05 C160.00,715.60 252.52,715.30 253.71,713.75 ZM 863.45 714.08 C863.76,713.58 860.64,708.12 856.51,701.95 C852.38,695.78 849.00,690.61 849.00,690.46 C849.00,690.31 844.28,683.11 838.50,674.48 C832.72,665.84 828.00,658.55 828.00,658.28 C828.00,658.00 825.82,654.79 823.16,651.13 C820.50,647.47 817.73,643.36 817.01,641.99 C816.28,640.62 804.66,622.85 791.18,602.50 C777.71,582.15 756.44,549.97 743.92,531.00 C731.40,512.03 718.88,493.22 716.08,489.22 C711.14,482.15 709.96,478.76 711.99,477.51 C712.54,477.17 716.92,472.33 721.74,466.74 C741.95,443.32 749.62,434.35 751.55,431.87 C752.68,430.42 756.79,425.69 760.68,421.37 C770.32,410.66 788.65,389.76 793.34,384.12 C795.45,381.58 800.23,376.12 803.95,372.00 C812.70,362.31 819.62,354.40 832.81,339.05 C838.69,332.20 846.76,322.99 850.75,318.58 C854.74,314.16 858.00,310.21 858.00,309.78 C858.00,309.35 835.07,309.00 807.04,309.00 L 756.08 309.00 L 735.28 332.75 C723.84,345.81 707.28,364.97 698.49,375.32 C689.70,385.67 680.25,396.73 677.50,399.90 C674.75,403.08 667.10,411.90 660.50,419.50 C653.90,427.11 645.12,437.23 641.00,441.98 C636.88,446.74 627.94,457.04 621.14,464.88 C614.35,472.71 608.52,478.85 608.18,478.52 C607.85,478.18 607.46,440.02 607.31,393.70 L 607.05 309.50 L 565.02 309.24 L 523.00 308.98 L 523.00 364.03 L 523.00 419.08 L 525.94 424.79 C528.78,430.30 538.95,451.44 547.22,469.00 C549.42,473.67 555.50,486.27 560.74,497.00 C565.98,507.73 571.78,519.76 573.63,523.75 C581.65,541.02 584.25,546.48 592.52,563.50 C597.33,573.40 602.71,584.57 604.47,588.32 L 607.67 595.14 L 617.59 583.90 C623.04,577.71 631.10,568.57 635.51,563.58 C639.92,558.58 645.23,552.36 647.33,549.75 C649.42,547.14 651.76,545.00 652.52,545.00 C654.14,545.00 654.41,545.36 665.91,563.00 C676.56,579.33 696.86,610.25 717.79,642.00 C726.31,654.92 735.62,669.10 738.49,673.50 C741.35,677.90 748.09,688.25 753.46,696.50 C758.83,704.75 763.92,712.29 764.77,713.25 C766.20,714.87 769.86,715.00 814.60,715.00 C842.88,715.00 863.12,714.62 863.45,714.08 Z" fill="rgb(254,254,254)"/>
</g>
</svg>